8_ID_stride2.mot
nRows=5
nColumns=38

name 8_ID_stride2.mot
datacolumns 38
datarows 5
range 0.1300000000 0.1500000000
endheader
time	pelvis_tilt_moment	pelvis_list_moment	pelvis_rotation_moment	pelvis_tx_force	pelvis_ty_force	pelvis_tz_force	hip_flexion_r_moment	hip_adduction_r_moment	hip_rotation_r_moment	knee_angle_r_moment	ankle_angle_r_moment	subtalar_angle_r_moment	mtp_angle_r_moment	hip_flexion_l_moment	hip_adduction_l_moment	hip_rotation_l_moment	knee_angle_l_moment	ankle_angle_l_moment	subtalar_angle_l_moment	mtp_angle_l_moment	lumbar_extension_moment	lumbar_bending_moment	lumbar_rotation_moment	arm_flex_r_moment	arm_add_r_moment	arm_rot_r_moment	elbow_flex_r_moment	pro_sup_r_moment	wrist_flex_r_moment	wrist_dev_r_moment	arm_flex_l_moment	arm_add_l_moment	arm_rot_l_moment	elbow_flex_l_moment	pro_sup_l_moment	wrist_flex_l_moment	wrist_dev_l_moment
        0.1300000000	      -31.6421396054	       60.0613145061	       40.0605144200	      128.1394384083	      392.9561015882	       16.0197422830	       63.1103603905	        6.0601442115	       -1.6225450026	       19.7357181682	        4.1722641605	       -0.3220676250	        0.2063129888	        0.0979982958	      -21.7352277216	      -15.2901755255	        0.3922452517	       15.3173322234	      -10.8588915311	        0.2536673529	       12.1489875828	       22.4501806312	        6.4794267288	       -5.7809054524	       -0.1889647216	        0.9949583479	        0.1792293057	        0.0215333239	        0.1181975692	        0.0720342237	       -7.7436164365	        0.9451186397	        0.8785566253	        0.1125862179	        0.0106535031	        0.0684674601	        0.0657115725	
        0.1350000000	      -56.1241336983	       68.7261763165	       59.4481367210	      142.4745995119	      387.8446868012	        2.7741595395	       66.0306736032	        8.1271316743	       -1.8723030529	       18.6254563867	        4.1264605676	       -0.2930209579	        0.2048622374	      -14.0686657869	      -48.5878125603	      -18.3412001872	       15.3798632379	       21.4911210100	      -11.4863998030	        0.3216774194	       25.6140324747	       33.4251972400	       10.6074508184	       -5.8036494395	       -0.2452936764	        1.2306686944	        1.1366306299	        0.0111814872	        0.1720995957	        0.0008947138	       -8.7858322866	        1.4559929677	        0.9620637590	        0.9739931586	       -0.0083012365	        0.0829347504	       -0.0076038487	
        0.1400000000	      -69.2541805477	       59.9381730735	       74.2877948123	      129.9627674692	      291.3263857950	      -21.1816454482	       71.0551853094	       10.5186139593	       -2.2129701667	       18.5848152163	        4.1342590707	       -0.2774390902	        0.2057134176	      -43.6263872777	      -72.6928106972	      -21.3795324525	       26.0901666793	       18.1900550987	      -10.2529591204	        0.3675677900	       30.3578855332	       37.2489470930	       13.1221915212	       -5.3921681241	       -0.2292015198	        1.3244121355	        1.8435645983	        0.0020277863	        0.2028764166	       -0.0550095310	       -8.7410096201	        1.7359994326	        0.9442733864	        1.6097381760	       -0.0234831765	        0.0856313446	       -0.0642580657	
        0.1450000000	      -67.5363172398	       36.7676648766	       82.4402736720	       94.5703543345	       98.7868610775	      -45.7432779564	       77.2471544197	       13.0880669863	       -2.6830586455	       19.0718128585	        4.1612032304	       -0.2642116943	        0.2074769837	      -85.3470780294	      -87.7913129280	      -25.2839073602	       32.4212266142	        6.7011583582	       -8.0822300565	        0.3764824533	       29.0078543686	       35.1700114187	       13.4393963668	       -4.5671107966	       -0.1015269289	        1.3465617832	        2.1567057864	       -0.0025503309	        0.2082096687	       -0.0833999926	       -8.2365676633	        1.6887967113	        0.8348174245	        1.8568611849	       -0.0337631671	        0.0801022405	       -0.0929273746	
        0.1500000000	      -51.6546539194	        3.6523830780	       84.3715265814	       41.5478979653	     -120.7064984189	      -52.5296913456	       82.4997230867	       15.5820360287	       -3.3030542742	       20.6833737206	        4.1929345382	       -0.2464020341	        0.2094588800	     -129.6269067289	      -91.4210845745	      -31.0842885946	       35.2235992765	      -13.2926058532	       -7.3218120561	        0.3711804636	       22.4477627514	       25.6274592756	       12.7840572417	       -3.6794887051	        0.2327362267	        1.3461032999	        2.1953014063	       -0.0033249465	        0.2057878717	       -0.0893473272	       -7.1166598411	        1.3180178806	        0.6045106568	        1.8665756534	       -0.0393663012	        0.0615884649	       -0.0987112777	
